<svg width="22" height="23" viewBox="0 0 22 23" fill="none" xmlns="http://www.w3.org/2000/svg">
<path d="M8.25016 20.6663C11.794 20.6663 14.6668 17.7935 14.6668 14.2497C14.6668 10.7058 11.794 7.83301 8.25016 7.83301C4.70634 7.83301 1.8335 10.7058 1.8335 14.2497C1.8335 17.7935 4.70634 20.6663 8.25016 20.6663Z" fill="white"/>
<path d="M14.6097 15.1093C17.7471 14.6892 20.1668 12.002 20.1668 8.74967C20.1668 5.20585 17.294 2.33301 13.7502 2.33301C10.4978 2.33301 7.81061 4.75271 7.39057 7.89009M14.6668 14.2497C14.6668 17.7935 11.794 20.6663 8.25016 20.6663C4.70634 20.6663 1.8335 17.7935 1.8335 14.2497C1.8335 10.7058 4.70634 7.83301 8.25016 7.83301C11.794 7.83301 14.6668 10.7058 14.6668 14.2497Z" stroke="white" stroke-width="1.33" stroke-linecap="round" stroke-linejoin="round"/>
</svg>
